<svg viewBox="0 0 68.026 74.4335" x="0" y="0" fill="none" xmlns="http://www.w3.org/2000/svg"><defs><clipPath id="clip9_2_2" xmlns="http://www.w3.org/2000/svg"><rect width="68" height="74" fill="white" transform="translate(0.5, 0.49979999999999336)"/></clipPath></defs><g id="IMAGE_9" data-node-id="2:78" clip-path="url(#clip9_2_2)" xmlns="http://www.w3.org/2000/svg"><path id="Vector_37" data-node-id="2:79" fill-rule="evenodd" clip-rule="evenodd" d="M22.9259,69.0278c-6.4,-1.796 -13.1006,-2.702 -19.6006,-3.532c-1.4,-0.174 -2.6998,0.797 -2.7998,2.165c-0.2,1.369 0.8006,2.621 2.1006,2.795c6.3,0.799 12.7994,1.654 18.8994,3.383c1.3,0.375 2.7006,-0.397 3.1006,-1.725c0.4,-1.327 -0.4002,-2.71 -1.7002,-3.086z" fill="#118DA8"/><path id="Vector_38" data-node-id="2:80" fill-rule="evenodd" clip-rule="evenodd" d="M42.3251,43.5648c-10.3,-10.511 -21.9,-19.669 -32,-30.462c-0.9,-1.008 -2.5,-1.062 -3.5,-0.121c-1,0.942 -1.0996,2.526 -0.0996,3.534c10.1,10.824 21.7,20.012 32,30.554c1,0.984 2.5996,0.998 3.5996,0.03c0.9,-0.967 1,-2.551 0,-3.535z" fill="#118DA8"/><path id="Vector_39" data-node-id="2:81" fill-rule="evenodd" clip-rule="evenodd" d="M61.626,3.1358c0.3,6.016 0.6,12.032 0.9,18.049c0,1.378 1.2,2.442 2.6,2.375c1.4,-0.068 2.4,-1.241 2.4,-2.62c-0.3,-6.026 -0.6,-12.051 -0.9,-18.076c-0.1,-1.378 -1.3,-2.435 -2.7,-2.36c-1.3,0.075 -2.4,1.255 -2.3,2.632z" fill="#118DA8"/></g></svg>