<svg viewBox="0 0 110.1109 17.3558" fill="none" xmlns="http://www.w3.org/2000/svg" xmlns:xlink="http://www.w3.org/1999/xlink" id="35a5e9ef" x="0" y="0"><g id="Desktop" data-node-id="2:2" clip-path="url(#clip0_2_2)"><g id="Frame_52" data-node-id="2:182"><g id="Frame_53" data-node-id="2:184"><g id="Frame_54" data-node-id="2:186"><g id="Frame_55" data-node-id="2:188"><g id="Frame_58" data-node-id="2:217"><g id="IMAGE_26" data-node-id="2:219" clip-path="url(#clip25_2_2)"><path id="Vector_53" data-node-id="2:220" d="M32.054,14.1975l4.15,2.51c0.76,0.46 1.69,-0.22 1.49,-1.08l-1.1,-4.72l3.67,-3.18c0.67,-0.58 0.31,-1.68 -0.57,-1.75l-4.83,-0.41l-1.89,-4.46c-0.34,-0.81 -1.5,-0.81 -1.84,0l-1.89,4.45l-4.83,0.41c-0.88,0.07 -1.24,1.17 -0.57,1.75l3.67,3.18l-1.1,4.72c-0.2,0.86 0.73,1.54 1.49,1.08z" fill="#FCFF51"/></g><g id="IMAGE_27" data-node-id="2:221" clip-path="url(#clip26_2_2)"><path id="Vector_54" data-node-id="2:222" d="M78.054,14.1975l4.15,2.51c0.76,0.46 1.69,-0.22 1.49,-1.08l-1.1,-4.72l3.67,-3.18c0.67,-0.58 0.31,-1.68 -0.57,-1.75l-4.83,-0.41l-1.89,-4.46c-0.34,-0.81 -1.5,-0.81 -1.84,0l-1.89,4.45l-4.83,0.41c-0.88,0.07 -1.24,1.17 -0.57,1.75l3.67,3.18l-1.1,4.72c-0.2,0.86 0.73,1.54 1.49,1.08z" fill="#FCFF51"/></g><g id="IMAGE_28" data-node-id="2:224" clip-path="url(#clip27_2_2)"><path id="Vector_55" data-node-id="2:225" d="M55.054,14.1975l4.15,2.51c0.76,0.46 1.69,-0.22 1.49,-1.08l-1.1,-4.72l3.67,-3.18c0.67,-0.58 0.31,-1.68 -0.57,-1.75l-4.83,-0.41l-1.89,-4.46c-0.34,-0.81 -1.5,-0.81 -1.84,0l-1.89,4.45l-4.83,0.41c-0.88,0.07 -1.24,1.17 -0.57,1.75l3.67,3.18l-1.1,4.72c-0.2,0.86 0.73,1.54 1.49,1.08z" fill="#FCFF51"/></g><g id="IMAGE_29" data-node-id="2:227" clip-path="url(#clip28_2_2)"><path id="Vector_56" data-node-id="2:228" d="M101.054,14.1975l4.15,2.51c0.76,0.46 1.69,-0.22 1.49,-1.08l-1.1,-4.72l3.67,-3.18c0.67,-0.58 0.31,-1.68 -0.57,-1.75l-4.83,-0.41l-1.89,-4.46c-0.34,-0.81 -1.5,-0.81 -1.84,0l-1.89,4.45l-4.83,0.41c-0.88,0.07 -1.24,1.17 -0.57,1.75l3.67,3.18l-1.1,4.72c-0.2,0.86 0.73,1.54 1.49,1.08z" fill="#FCFF51"/></g><g id="IMAGE_30" data-node-id="2:229" clip-path="url(#clip29_2_2)"><path id="Vector_57" data-node-id="2:230" d="M9.054,14.1975l4.15,2.51c0.76,0.46 1.69,-0.22 1.49,-1.08l-1.1,-4.72l3.67,-3.18c0.67,-0.58 0.31,-1.68 -0.57,-1.75l-4.83,-0.41l-1.89,-4.46c-0.34,-0.81 -1.5,-0.81 -1.84,0l-1.89,4.45l-4.827,0.41c-0.88,0.07 -1.24,1.17 -0.57,1.75l3.667,3.18l-1.1,4.72c-0.2,0.86 0.73,1.54 1.49,1.08z" fill="#FCFF51"/></g></g></g></g></g></g></g><defs><clipPath id="clip0_2_2"><rect width="1440" height="5990" fill="white" x="-996.956" y="-4804.5025"/></clipPath><clipPath id="clip25_2_2"><rect width="18" height="17" fill="white" transform="translate(23.043999999999983, 0.4975000000004002)"/></clipPath><clipPath id="clip26_2_2"><rect width="18" height="17" fill="white" transform="translate(69.04399999999998, 0.4975000000004002)"/></clipPath><clipPath id="clip27_2_2"><rect width="18" height="17" fill="white" transform="translate(46.04399999999998, 0.4975000000004002)"/></clipPath><clipPath id="clip28_2_2"><rect width="18" height="17" fill="white" transform="translate(92.04399999999998, 0.4975000000004002)"/></clipPath><clipPath id="clip29_2_2"><rect width="18" height="17" fill="white" transform="translate(0.04399999999998272, 0.4975000000004002)"/></clipPath></defs></svg>