<svg viewBox="0 0 110.1139 17.3558" fill="none" xmlns="http://www.w3.org/2000/svg" xmlns:xlink="http://www.w3.org/1999/xlink" id="fea230f0" x="0" y="0"><g id="Desktop" data-node-id="2:2" clip-path="url(#clip0_2_2)"><g id="Frame_52" data-node-id="2:182"><g id="Frame_53" data-node-id="2:184"><g id="Frame_54" data-node-id="2:186"><g id="Frame_55" data-node-id="2:188"><g id="Frame_60" data-node-id="2:245"><g id="IMAGE_36" data-node-id="2:247" clip-path="url(#clip35_2_2)"><path id="Vector_63" data-node-id="2:248" d="M32.057,14.1975l4.15,2.51c0.76,0.46 1.69,-0.22 1.49,-1.08l-1.1,-4.72l3.67,-3.18c0.67,-0.58 0.31,-1.68 -0.57,-1.75l-4.83,-0.41l-1.89,-4.46c-0.34,-0.81 -1.5,-0.81 -1.84,0l-1.89,4.45l-4.83,0.41c-0.88,0.07 -1.24,1.17 -0.57,1.75l3.67,3.18l-1.1,4.72c-0.2,0.86 0.73,1.54 1.49,1.08z" fill="#FCFF51"/></g><g id="IMAGE_37" data-node-id="2:249" clip-path="url(#clip36_2_2)"><path id="Vector_64" data-node-id="2:250" d="M78.057,14.1975l4.15,2.51c0.76,0.46 1.69,-0.22 1.49,-1.08l-1.1,-4.72l3.67,-3.18c0.67,-0.58 0.31,-1.68 -0.57,-1.75l-4.83,-0.41l-1.89,-4.46c-0.34,-0.81 -1.5,-0.81 -1.84,0l-1.89,4.45l-4.83,0.41c-0.88,0.07 -1.24,1.17 -0.57,1.75l3.67,3.18l-1.1,4.72c-0.2,0.86 0.73,1.54 1.49,1.08z" fill="#FCFF51"/></g><g id="IMAGE_38" data-node-id="2:252" clip-path="url(#clip37_2_2)"><path id="Vector_65" data-node-id="2:253" d="M55.057,14.1975l4.15,2.51c0.76,0.46 1.69,-0.22 1.49,-1.08l-1.1,-4.72l3.67,-3.18c0.67,-0.58 0.31,-1.68 -0.57,-1.75l-4.83,-0.41l-1.89,-4.46c-0.34,-0.81 -1.5,-0.81 -1.84,0l-1.89,4.45l-4.83,0.41c-0.88,0.07 -1.24,1.17 -0.57,1.75l3.67,3.18l-1.1,4.72c-0.2,0.86 0.73,1.54 1.49,1.08z" fill="#FCFF51"/></g><g id="IMAGE_39" data-node-id="2:255" clip-path="url(#clip38_2_2)"><path id="Vector_66" data-node-id="2:256" d="M9.057,14.1975l4.15,2.51c0.76,0.46 1.69,-0.22 1.49,-1.08l-1.1,-4.72l3.67,-3.18c0.67,-0.58 0.31,-1.68 -0.57,-1.75l-4.83,-0.41l-1.89,-4.46c-0.34,-0.81 -1.5,-0.81 -1.84,0l-1.89,4.45l-4.83,0.41c-0.88,0.07 -1.24,1.17 -0.57,1.75l3.67,3.18l-1.1,4.72c-0.2,0.86 0.73,1.54 1.49,1.08z" fill="#FCFF51"/></g><g id="IMAGE_40" data-node-id="2:257" clip-path="url(#clip39_2_2)"><path id="Vector_67" data-node-id="2:258" d="M101.057,14.1975l4.15,2.51c0.76,0.46 1.69,-0.22 1.49,-1.08l-1.1,-4.72l3.67,-3.18c0.67,-0.58 0.31,-1.68 -0.57,-1.75l-4.83,-0.41l-1.89,-4.46c-0.34,-0.81 -1.5,-0.81 -1.84,0l-1.89,4.45l-4.83,0.41c-0.88,0.07 -1.24,1.17 -0.57,1.75l3.67,3.18l-1.1,4.72c-0.2,0.86 0.73,1.54 1.49,1.08z" fill="#FCFF51"/></g></g></g></g></g></g></g><defs><clipPath id="clip0_2_2"><rect width="1440" height="5990" fill="white" x="-558.956" y="-5141.5025"/></clipPath><clipPath id="clip35_2_2"><rect width="18" height="17" fill="white" transform="translate(23.043999999999983, 0.4975000000004002)"/></clipPath><clipPath id="clip36_2_2"><rect width="18" height="17" fill="white" transform="translate(69.04399999999998, 0.4975000000004002)"/></clipPath><clipPath id="clip37_2_2"><rect width="18" height="17" fill="white" transform="translate(46.04399999999998, 0.4975000000004002)"/></clipPath><clipPath id="clip38_2_2"><rect width="18" height="17" fill="white" transform="translate(0.04399999999998272, 0.4975000000004002)"/></clipPath><clipPath id="clip39_2_2"><rect width="18" height="17" fill="white" transform="translate(92.04399999999998, 0.4975000000004002)"/></clipPath></defs></svg>