<svg viewBox="0 0 224.0846 46.47" x="0" y="0" fill="none" xmlns="http://www.w3.org/2000/svg"><path id="Vector_78" data-node-id="2:289" d="M17.16,35.82c-3.4626,0 -6.4353,-0.73 -8.918,-2.19c-2.4827,-1.5 -4.3937,-3.56 -5.733,-6.2c-1.3393,-2.66 -2.009,-5.74 -2.009,-9.22c0,-3.48 0.6697,-6.55 2.009,-9.22c1.3393,-2.67 3.2503,-4.75 5.733,-6.24c2.4827,-1.5 5.4554,-2.25 8.918,-2.25c4.116,0 7.4806,1.03 10.094,3.07c2.646,2.02 4.296,4.87 4.949,8.54h-6.909c-0.4246,-1.85 -1.3394,-3.3 -2.744,-4.34c-1.372,-1.07 -3.2014,-1.61 -5.488,-1.61c-3.1686,0 -5.6513,1.07 -7.448,3.22c-1.7967,2.15 -2.695,5.09 -2.695,8.83c0,3.74 0.8983,6.69 2.695,8.83c1.7967,2.12 4.2794,3.17 7.448,3.17c2.2866,0 4.116,-0.48 5.488,-1.46c1.4046,-1.01 2.3194,-2.39 2.744,-4.15h6.909c-0.653,3.52 -2.303,6.26 -4.949,8.25c-2.6134,1.98 -5.978,2.97 -10.094,2.97zM45.007,35.82c-2.091,0 -3.806,-0.32 -5.145,-0.97c-1.339,-0.69 -2.336,-1.58 -2.989,-2.69c-0.653,-1.1 -0.98,-2.32 -0.98,-3.65c0,-2.25 0.882,-4.07 2.646,-5.47c1.764,-1.4 4.41,-2.1 7.938,-2.1h6.174v-0.58c0,-1.66 -0.474,-2.88 -1.421,-3.66c-0.947,-0.78 -2.123,-1.17 -3.528,-1.17c-1.274,0 -2.385,0.31 -3.332,0.92c-0.947,0.59 -1.535,1.47 -1.764,2.64h-6.125c0.163,-1.76 0.751,-3.29 1.764,-4.59c1.045,-1.3 2.385,-2.29 4.018,-2.97c1.633,-0.72 3.463,-1.08 5.488,-1.08c3.463,0 6.19,0.87 8.183,2.59c1.993,1.72 2.989,4.16 2.989,7.32v14.88h-5.341l-0.588,-3.9c-0.719,1.3 -1.731,2.37 -3.038,3.22c-1.274,0.84 -2.924,1.26 -4.949,1.26zM46.428,30.94c1.797,0 3.185,-0.58 4.165,-1.75c1.013,-1.17 1.65,-2.62 1.911,-4.34h-5.341c-1.666,0 -2.858,0.31 -3.577,0.92c-0.719,0.59 -1.078,1.32 -1.078,2.2c0,0.94 0.359,1.67 1.078,2.19c0.719,0.52 1.666,0.78 2.842,0.78zM73.973,35.82c-2.156,0 -4.051,-0.34 -5.684,-1.02c-1.633,-0.72 -2.94,-1.69 -3.92,-2.93c-0.98,-1.23 -1.568,-2.67 -1.764,-4.29h6.321c0.196,0.94 0.719,1.75 1.568,2.44c0.882,0.65 2.009,0.97 3.381,0.97c1.372,0 2.369,-0.27 2.989,-0.83c0.653,-0.55 0.98,-1.18 0.98,-1.9c0,-1.04 -0.457,-1.74 -1.372,-2.1c-0.915,-0.39 -2.188,-0.76 -3.822,-1.12c-1.045,-0.23 -2.107,-0.5 -3.185,-0.83c-1.078,-0.32 -2.074,-0.73 -2.989,-1.22c-0.882,-0.52 -1.601,-1.17 -2.156,-1.95c-0.555,-0.81 -0.833,-1.8 -0.833,-2.98c0,-2.14 0.849,-3.95 2.548,-5.41c1.731,-1.46 4.149,-2.2 7.252,-2.2c2.875,0 5.162,0.67 6.86,2c1.732,1.34 2.76,3.18 3.087,5.52h-5.929c-0.359,-1.79 -1.715,-2.69 -4.067,-2.69c-1.176,0 -2.091,0.23 -2.744,0.69c-0.621,0.45 -0.931,1.02 -0.931,1.7c0,0.72 0.474,1.29 1.421,1.71c0.947,0.43 2.205,0.82 3.773,1.17c1.699,0.39 3.25,0.83 4.655,1.32c1.437,0.46 2.581,1.16 3.43,2.1c0.849,0.91 1.274,2.23 1.274,3.95c0.033,1.5 -0.359,2.85 -1.176,4.05c-0.817,1.2 -1.993,2.15 -3.528,2.83c-1.535,0.68 -3.348,1.02 -5.439,1.02zM98.756,35.24c-2.548,0 -4.59,-0.62 -6.125,-1.86c-1.536,-1.23 -2.303,-3.43 -2.303,-6.58v-10.54h-4.165v-5.22h4.165l0.735,-6.49h5.537v6.49h6.566v5.22h-6.566v10.59c0,1.17 0.245,1.98 0.735,2.44c0.522,0.42 1.404,0.63 2.646,0.63h3.038v5.32zM115.95,35.82c-2.091,0 -3.806,-0.32 -5.145,-0.97c-1.34,-0.69 -2.336,-1.58 -2.989,-2.69c-0.654,-1.1 -0.98,-2.32 -0.98,-3.65c0,-2.25 0.882,-4.07 2.646,-5.47c1.764,-1.4 4.41,-2.1 7.938,-2.1h6.174v-0.58c0,-1.66 -0.474,-2.88 -1.421,-3.66c-0.948,-0.78 -2.124,-1.17 -3.528,-1.17c-1.274,0 -2.385,0.31 -3.332,0.92c-0.948,0.59 -1.536,1.47 -1.764,2.64h-6.125c0.163,-1.76 0.751,-3.29 1.764,-4.59c1.045,-1.3 2.384,-2.29 4.018,-2.97c1.633,-0.72 3.462,-1.08 5.488,-1.08c3.462,0 6.19,0.87 8.183,2.59c1.992,1.72 2.989,4.16 2.989,7.32v14.88h-5.341l-0.588,-3.9c-0.719,1.3 -1.732,2.37 -3.038,3.22c-1.274,0.84 -2.924,1.26 -4.949,1.26zM117.371,30.94c1.796,0 3.185,-0.58 4.165,-1.75c1.012,-1.17 1.649,-2.62 1.911,-4.34h-5.341c-1.666,0 -2.859,0.31 -3.577,0.92c-0.719,0.59 -1.078,1.32 -1.078,2.2c0,0.94 0.359,1.67 1.078,2.19c0.718,0.52 1.666,0.78 2.842,0.78zM139.385,35.24l-7.105,-24.2h6.223l4.213,17.42l4.9,-17.42h6.958l4.9,17.42l4.263,-17.42h6.223l-7.154,24.2h-6.517l-5.194,-18.1l-5.194,18.1zM180.072,35.82c-2.09,0 -3.805,-0.32 -5.145,-0.97c-1.338,-0.69 -2.335,-1.58 -2.989,-2.69c-0.652,-1.1 -0.98,-2.32 -0.98,-3.65c0,-2.25 0.882,-4.07 2.646,-5.47c1.764,-1.4 4.41,-2.1 7.938,-2.1h6.174v-0.58c0,-1.66 -0.473,-2.88 -1.421,-3.66c-0.946,-0.78 -2.122,-1.17 -3.528,-1.17c-1.274,0 -2.384,0.31 -3.332,0.92c-0.946,0.59 -1.534,1.47 -1.764,2.64h-6.125c0.164,-1.76 0.752,-3.29 1.764,-4.59c1.046,-1.3 2.386,-2.29 4.018,-2.97c1.634,-0.72 3.464,-1.08 5.488,-1.08c3.464,0 6.191,0.87 8.183,2.59c1.994,1.72 2.989,4.16 2.989,7.32v14.88h-5.341l-0.588,-3.9c-0.718,1.3 -1.73,2.37 -3.038,3.22c-1.274,0.84 -2.923,1.26 -4.949,1.26zM181.493,30.94c1.798,0 3.185,-0.58 4.165,-1.75c1.014,-1.17 1.651,-2.62 1.911,-4.34h-5.341c-1.666,0 -2.857,0.31 -3.577,0.92c-0.718,0.59 -1.078,1.32 -1.078,2.2c0,0.94 0.36,1.67 1.078,2.19c0.72,0.52 1.666,0.78 2.842,0.78zM201.218,45.97l5.635,-12.34h-1.47l-9.457,-22.59h6.811l6.811,17.03l7.105,-17.03h6.664l-15.435,34.93z" fill="white" xmlns="http://www.w3.org/2000/svg"/></svg>