<svg viewBox="0 0 110.1139 17.3558" fill="none" xmlns="http://www.w3.org/2000/svg" xmlns:xlink="http://www.w3.org/1999/xlink" id="55bcfee" x="0" y="0"><g id="Desktop" data-node-id="2:2" clip-path="url(#clip0_2_2)"><g id="Frame_52" data-node-id="2:182"><g id="Frame_53" data-node-id="2:184"><g id="Frame_54" data-node-id="2:186"><g id="Frame_55" data-node-id="2:188"><g id="Frame_56" data-node-id="2:189"><g id="IMAGE_16" data-node-id="2:191" clip-path="url(#clip15_2_2)"><path id="Vector_43" data-node-id="2:192" d="M32.057,14.1975l4.15,2.51c0.76,0.46 1.69,-0.22 1.49,-1.08l-1.1,-4.72l3.67,-3.18c0.67,-0.58 0.31,-1.68 -0.57,-1.75l-4.83,-0.41l-1.89,-4.46c-0.34,-0.81 -1.5,-0.81 -1.84,0l-1.89,4.45l-4.83,0.41c-0.88,0.07 -1.24,1.17 -0.57,1.75l3.67,3.18l-1.1,4.72c-0.2,0.86 0.73,1.54 1.49,1.08z" fill="#FCFF51"/></g><g id="IMAGE_17" data-node-id="2:193" clip-path="url(#clip16_2_2)"><path id="Vector_44" data-node-id="2:194" d="M78.057,14.1975l4.15,2.51c0.76,0.46 1.69,-0.22 1.49,-1.08l-1.1,-4.72l3.67,-3.18c0.67,-0.58 0.31,-1.68 -0.57,-1.75l-4.83,-0.41l-1.89,-4.46c-0.34,-0.81 -1.5,-0.81 -1.84,0l-1.89,4.45l-4.83,0.41c-0.88,0.07 -1.24,1.17 -0.57,1.75l3.67,3.18l-1.1,4.72c-0.2,0.86 0.73,1.54 1.49,1.08z" fill="#FCFF51"/></g><g id="IMAGE_18" data-node-id="2:196" clip-path="url(#clip17_2_2)"><path id="Vector_45" data-node-id="2:197" d="M55.057,14.1975l4.15,2.51c0.76,0.46 1.69,-0.22 1.49,-1.08l-1.1,-4.72l3.67,-3.18c0.67,-0.58 0.31,-1.68 -0.57,-1.75l-4.83,-0.41l-1.89,-4.46c-0.34,-0.81 -1.5,-0.81 -1.84,0l-1.89,4.45l-4.83,0.41c-0.88,0.07 -1.24,1.17 -0.57,1.75l3.67,3.18l-1.1,4.72c-0.2,0.86 0.73,1.54 1.49,1.08z" fill="#FCFF51"/></g><g id="IMAGE_19" data-node-id="2:199" clip-path="url(#clip18_2_2)"><path id="Vector_46" data-node-id="2:200" d="M9.057,14.1975l4.15,2.51c0.76,0.46 1.69,-0.22 1.49,-1.08l-1.1,-4.72l3.67,-3.18c0.67,-0.58 0.31,-1.68 -0.57,-1.75l-4.83,-0.41l-1.89,-4.46c-0.34,-0.81 -1.5,-0.81 -1.84,0l-1.89,4.45l-4.83,0.41c-0.88,0.07 -1.24,1.17 -0.57,1.75l3.67,3.18l-1.1,4.72c-0.2,0.86 0.73,1.54 1.49,1.08z" fill="#FCFF51"/></g><g id="IMAGE_20" data-node-id="2:201" clip-path="url(#clip19_2_2)"><path id="Vector_47" data-node-id="2:202" d="M101.057,14.1975l4.15,2.51c0.76,0.46 1.69,-0.22 1.49,-1.08l-1.1,-4.72l3.67,-3.18c0.67,-0.58 0.31,-1.68 -0.57,-1.75l-4.83,-0.41l-1.89,-4.46c-0.34,-0.81 -1.5,-0.81 -1.84,0l-1.89,4.45l-4.83,0.41c-0.88,0.07 -1.24,1.17 -0.57,1.75l3.67,3.18l-1.1,4.72c-0.2,0.86 0.73,1.54 1.49,1.08z" fill="#FCFF51"/></g></g></g></g></g></g></g><defs><clipPath id="clip0_2_2"><rect width="1440" height="5990" fill="white" x="-119.956" y="-4804.5025"/></clipPath><clipPath id="clip15_2_2"><rect width="18" height="17" fill="white" transform="translate(23.043999999999997, 0.4975000000004002)"/></clipPath><clipPath id="clip16_2_2"><rect width="18" height="17" fill="white" transform="translate(69.044, 0.4975000000004002)"/></clipPath><clipPath id="clip17_2_2"><rect width="18" height="17" fill="white" transform="translate(46.044, 0.4975000000004002)"/></clipPath><clipPath id="clip18_2_2"><rect width="18" height="17" fill="white" transform="translate(0.04399999999999693, 0.4975000000004002)"/></clipPath><clipPath id="clip19_2_2"><rect width="18" height="17" fill="white" transform="translate(92.044, 0.4975000000004002)"/></clipPath></defs></svg>