<svg viewBox="0 0 110.1139 17.3558" fill="none" xmlns="http://www.w3.org/2000/svg" xmlns:xlink="http://www.w3.org/1999/xlink" id="71ae56ca" x="0" y="0"><g id="Desktop" data-node-id="2:2" clip-path="url(#clip0_2_2)"><g id="Frame_52" data-node-id="2:182"><g id="Frame_53" data-node-id="2:184"><g id="Frame_54" data-node-id="2:186"><g id="Frame_55" data-node-id="2:188"><g id="Frame_59" data-node-id="2:231"><g id="IMAGE_31" data-node-id="2:233" clip-path="url(#clip30_2_2)"><path id="Vector_58" data-node-id="2:234" d="M32.057,14.1975l4.15,2.51c0.76,0.46 1.69,-0.22 1.49,-1.08l-1.1,-4.72l3.67,-3.18c0.67,-0.58 0.31,-1.68 -0.57,-1.75l-4.83,-0.41l-1.89,-4.46c-0.34,-0.81 -1.5,-0.81 -1.84,0l-1.89,4.45l-4.83,0.41c-0.88,0.07 -1.24,1.17 -0.57,1.75l3.67,3.18l-1.1,4.72c-0.2,0.86 0.73,1.54 1.49,1.08z" fill="#FCFF51"/></g><g id="IMAGE_32" data-node-id="2:235" clip-path="url(#clip31_2_2)"><path id="Vector_59" data-node-id="2:236" d="M78.057,14.1975l4.15,2.51c0.76,0.46 1.69,-0.22 1.49,-1.08l-1.1,-4.72l3.67,-3.18c0.67,-0.58 0.31,-1.68 -0.57,-1.75l-4.83,-0.41l-1.89,-4.46c-0.34,-0.81 -1.5,-0.81 -1.84,0l-1.89,4.45l-4.83,0.41c-0.88,0.07 -1.24,1.17 -0.57,1.75l3.67,3.18l-1.1,4.72c-0.2,0.86 0.73,1.54 1.49,1.08z" fill="#FCFF51"/></g><g id="IMAGE_33" data-node-id="2:238" clip-path="url(#clip32_2_2)"><path id="Vector_60" data-node-id="2:239" d="M9.057,14.1975l4.15,2.51c0.76,0.46 1.69,-0.22 1.49,-1.08l-1.1,-4.72l3.67,-3.18c0.67,-0.58 0.31,-1.68 -0.57,-1.75l-4.83,-0.41l-1.89,-4.46c-0.34,-0.81 -1.5,-0.81 -1.84,0l-1.89,4.45l-4.83,0.41c-0.88,0.07 -1.24,1.17 -0.57,1.75l3.67,3.18l-1.1,4.72c-0.2,0.86 0.73,1.54 1.49,1.08z" fill="#FCFF51"/></g><g id="IMAGE_34" data-node-id="2:240" clip-path="url(#clip33_2_2)"><path id="Vector_61" data-node-id="2:241" d="M101.057,14.1975l4.15,2.51c0.76,0.46 1.69,-0.22 1.49,-1.08l-1.1,-4.72l3.67,-3.18c0.67,-0.58 0.31,-1.68 -0.57,-1.75l-4.83,-0.41l-1.89,-4.46c-0.34,-0.81 -1.5,-0.81 -1.84,0l-1.89,4.45l-4.83,0.41c-0.88,0.07 -1.24,1.17 -0.57,1.75l3.67,3.18l-1.1,4.72c-0.2,0.86 0.73,1.54 1.49,1.08z" fill="#FCFF51"/></g><g id="IMAGE_35" data-node-id="2:243" clip-path="url(#clip34_2_2)"><path id="Vector_62" data-node-id="2:244" d="M55.057,14.1975l4.15,2.51c0.76,0.46 1.69,-0.22 1.49,-1.08l-1.1,-4.72l3.67,-3.18c0.67,-0.58 0.31,-1.68 -0.57,-1.75l-4.83,-0.41l-1.89,-4.46c-0.34,-0.81 -1.5,-0.81 -1.84,0l-1.89,4.45l-4.83,0.41c-0.88,0.07 -1.24,1.17 -0.57,1.75l3.67,3.18l-1.1,4.72c-0.2,0.86 0.73,1.54 1.49,1.08z" fill="#FCFF51"/></g></g></g></g></g></g></g><defs><clipPath id="clip0_2_2"><rect width="1440" height="5990" fill="white" x="-119.956" y="-5141.5025"/></clipPath><clipPath id="clip30_2_2"><rect width="18" height="17" fill="white" transform="translate(23.043999999999997, 0.4975000000004002)"/></clipPath><clipPath id="clip31_2_2"><rect width="18" height="17" fill="white" transform="translate(69.044, 0.4975000000004002)"/></clipPath><clipPath id="clip32_2_2"><rect width="18" height="17" fill="white" transform="translate(0.04399999999999693, 0.4975000000004002)"/></clipPath><clipPath id="clip33_2_2"><rect width="18" height="17" fill="white" transform="translate(92.044, 0.4975000000004002)"/></clipPath><clipPath id="clip34_2_2"><rect width="18" height="17" fill="white" transform="translate(46.044, 0.4975000000004002)"/></clipPath></defs></svg>