<svg viewBox="0 0 160.4212 33.62" x="0" y="0" fill="none" xmlns="http://www.w3.org/2000/svg"><path id="Vector" data-node-id="2:7" d="M12.4,25.84c-2.4733,0 -4.5967,-0.525 -6.37,-1.575c-1.7733,-1.0733 -3.1383,-2.555 -4.095,-4.445c-0.9567,-1.9133 -1.435,-4.1183 -1.435,-6.615c0,-2.4967 0.4783,-4.7017 1.435,-6.615c0.9567,-1.9133 2.3217,-3.4067 4.095,-4.48c1.7733,-1.0733 3.8967,-1.61 6.37,-1.61c2.94,0 5.3433,0.735 7.21,2.205c1.89,1.4467 3.0683,3.4883 3.535,6.125h-4.935c-0.3033,-1.33 -0.9567,-2.3683 -1.96,-3.115c-0.98,-0.77 -2.2867,-1.155 -3.92,-1.155c-2.2633,0 -4.0367,0.77 -5.32,2.31c-1.2833,1.54 -1.925,3.6517 -1.925,6.335c0,2.6833 0.6417,4.795 1.925,6.335c1.2833,1.5167 3.0567,2.275 5.32,2.275c1.6333,0 2.94,-0.35 3.92,-1.05c1.0033,-0.7233 1.6567,-1.715 1.96,-2.975h4.935c-0.4667,2.52 -1.645,4.4917 -3.535,5.915c-1.8667,1.4233 -4.27,2.135 -7.21,2.135zM32.2907,25.84c-1.4934,0 -2.7184,-0.2333 -3.675,-0.7c-0.9567,-0.49 -1.6684,-1.1317 -2.135,-1.925c-0.4667,-0.7933 -0.7,-1.6683 -0.7,-2.625c0,-1.61 0.63,-2.9167 1.89,-3.92c1.26,-1.0033 3.15,-1.505 5.67,-1.505h4.41v-0.42c0,-1.19 -0.3384,-2.065 -1.015,-2.625c-0.6767,-0.56 -1.5167,-0.84 -2.52,-0.84c-0.91,0 -1.7034,0.2217 -2.38,0.665c-0.6767,0.42 -1.0967,1.05 -1.26,1.89h-4.375c0.1166,-1.26 0.5366,-2.3567 1.26,-3.29c0.7466,-0.9333 1.7033,-1.645 2.87,-2.135c1.1666,-0.5133 2.4733,-0.77 3.92,-0.77c2.4733,0 4.4216,0.6183 5.845,1.855c1.4233,1.2367 2.135,2.9867 2.135,5.25v10.675h-3.815l-0.42,-2.8c-0.5134,0.9333 -1.2367,1.7033 -2.17,2.31c-0.91,0.6067 -2.0884,0.91 -3.535,0.91zM33.3057,22.34c1.2833,0 2.275,-0.42 2.975,-1.26c0.7233,-0.84 1.1783,-1.8783 1.365,-3.115h-3.815c-1.19,0 -2.0417,0.2217 -2.555,0.665c-0.5134,0.42 -0.77,0.945 -0.77,1.575c0,0.6767 0.2566,1.2017 0.77,1.575c0.5133,0.3733 1.19,0.56 2.03,0.56zM52.981,25.84c-1.54,0 -2.894,-0.245 -4.0601,-0.735c-1.1667,-0.5133 -2.1,-1.2133 -2.8,-2.1c-0.7,-0.8867 -1.12,-1.9133 -1.26,-3.08h4.515c0.14,0.6767 0.5133,1.26 1.1201,1.75c0.63,0.4667 1.435,0.7 2.415,0.7c0.98,0 1.691,-0.1983 2.135,-0.595c0.466,-0.3967 0.7,-0.8517 0.7,-1.365c0,-0.7467 -0.327,-1.2483 -0.98,-1.505c-0.653,-0.28 -1.563,-0.5483 -2.73,-0.805c-0.747,-0.1633 -1.505,-0.3617 -2.2751,-0.595c-0.77,-0.2333 -1.4817,-0.525 -2.135,-0.875c-0.63,-0.3733 -1.1434,-0.84 -1.54,-1.4c-0.3967,-0.5833 -0.595,-1.295 -0.595,-2.135c0,-1.54 0.6066,-2.835 1.82,-3.885c1.2366,-1.05 2.9631,-1.575 5.1801,-1.575c2.053,0 3.686,0.4783 4.9,1.435c1.236,0.9567 1.972,2.275 2.205,3.955h-4.235c-0.257,-1.2833 -1.225,-1.925 -2.905,-1.925c-0.84,0 -1.494,0.1633 -1.96,0.49c-0.444,0.3267 -0.6651,0.735 -0.6651,1.225c0,0.5133 0.3381,0.9217 1.0151,1.225c0.676,0.3033 1.575,0.5833 2.695,0.84c1.213,0.28 2.322,0.595 3.325,0.945c1.026,0.3267 1.843,0.8283 2.45,1.505c0.607,0.6533 0.91,1.5983 0.91,2.835c0.023,1.0733 -0.257,2.0417 -0.84,2.905c-0.584,0.8633 -1.424,1.54 -2.52,2.03c-1.097,0.49 -2.392,0.735 -3.885,0.735zM70.683,25.42c-1.82,0 -3.279,-0.4433 -4.375,-1.33c-1.097,-0.8867 -1.645,-2.4617 -1.645,-4.725v-7.56h-2.975v-3.745h2.975l0.525,-4.655h3.955v4.655h4.69v3.745h-4.69v7.595c0,0.84 0.175,1.4233 0.525,1.75c0.373,0.3033 1.003,0.455 1.89,0.455h2.17v3.815zM82.964,25.84c-1.493,0 -2.718,-0.2333 -3.675,-0.7c-0.957,-0.49 -1.668,-1.1317 -2.135,-1.925c-0.467,-0.7933 -0.7,-1.6683 -0.7,-2.625c0,-1.61 0.63,-2.9167 1.89,-3.92c1.26,-1.0033 3.15,-1.505 5.67,-1.505h4.41v-0.42c0,-1.19 -0.338,-2.065 -1.015,-2.625c-0.677,-0.56 -1.517,-0.84 -2.52,-0.84c-0.91,0 -1.703,0.2217 -2.38,0.665c-0.677,0.42 -1.097,1.05 -1.26,1.89h-4.375c0.117,-1.26 0.537,-2.3567 1.26,-3.29c0.747,-0.9333 1.703,-1.645 2.87,-2.135c1.167,-0.5133 2.473,-0.77 3.92,-0.77c2.473,0 4.422,0.6183 5.845,1.855c1.423,1.2367 2.135,2.9867 2.135,5.25v10.675h-3.815l-0.42,-2.8c-0.513,0.9333 -1.237,1.7033 -2.17,2.31c-0.91,0.6067 -2.088,0.91 -3.535,0.91zM83.979,22.34c1.283,0 2.275,-0.42 2.975,-1.26c0.723,-0.84 1.178,-1.8783 1.365,-3.115h-3.815c-1.19,0 -2.042,0.2217 -2.555,0.665c-0.513,0.42 -0.77,0.945 -0.77,1.575c0,0.6767 0.257,1.2017 0.77,1.575c0.513,0.3733 1.19,0.56 2.03,0.56zM99.703,25.42l-5.075,-17.36h4.445l3.01,12.495l3.5,-12.495h4.97l3.5,12.495l3.045,-12.495h4.445l-5.11,17.36h-4.655l-3.71,-12.985l-3.71,12.985zM128.766,25.84c-1.493,0 -2.718,-0.2333 -3.675,-0.7c-0.956,-0.49 -1.668,-1.1317 -2.135,-1.925c-0.466,-0.7933 -0.7,-1.6683 -0.7,-2.625c0,-1.61 0.63,-2.9167 1.89,-3.92c1.26,-1.0033 3.15,-1.505 5.67,-1.505h4.41v-0.42c0,-1.19 -0.338,-2.065 -1.015,-2.625c-0.676,-0.56 -1.516,-0.84 -2.52,-0.84c-0.91,0 -1.703,0.2217 -2.38,0.665c-0.676,0.42 -1.096,1.05 -1.26,1.89h-4.375c0.117,-1.26 0.537,-2.3567 1.26,-3.29c0.747,-0.9333 1.704,-1.645 2.87,-2.135c1.167,-0.5133 2.474,-0.77 3.92,-0.77c2.474,0 4.422,0.6183 5.845,1.855c1.424,1.2367 2.135,2.9867 2.135,5.25v10.675h-3.815l-0.42,-2.8c-0.513,0.9333 -1.236,1.7033 -2.17,2.31c-0.91,0.6067 -2.088,0.91 -3.535,0.91zM129.781,22.34c1.284,0 2.275,-0.42 2.975,-1.26c0.724,-0.84 1.179,-1.8783 1.365,-3.115h-3.815c-1.19,0 -2.041,0.2217 -2.555,0.665c-0.513,0.42 -0.77,0.945 -0.77,1.575c0,0.6767 0.257,1.2017 0.77,1.575c0.514,0.3733 1.19,0.56 2.03,0.56zM143.87,33.12l4.025,-8.855h-1.05l-6.755,-16.205h4.865l4.865,12.215l5.075,-12.215h4.76l-11.025,25.06z" fill="white" xmlns="http://www.w3.org/2000/svg"/></svg>