<svg viewBox="0 0 110.1109 17.3558" fill="none" xmlns="http://www.w3.org/2000/svg" xmlns:xlink="http://www.w3.org/1999/xlink" id="ee51874b" x="0" y="0"><g id="Desktop" data-node-id="2:2" clip-path="url(#clip0_2_2)"><g id="Frame_52" data-node-id="2:182"><g id="Frame_53" data-node-id="2:184"><g id="Frame_54" data-node-id="2:186"><g id="Frame_55" data-node-id="2:188"><g id="Frame_61" data-node-id="2:259"><g id="IMAGE_41" data-node-id="2:261" clip-path="url(#clip40_2_2)"><path id="Vector_68" data-node-id="2:262" d="M32.054,14.1975l4.15,2.51c0.76,0.46 1.69,-0.22 1.49,-1.08l-1.1,-4.72l3.67,-3.18c0.67,-0.58 0.31,-1.68 -0.57,-1.75l-4.83,-0.41l-1.89,-4.46c-0.34,-0.81 -1.5,-0.81 -1.84,0l-1.89,4.45l-4.83,0.41c-0.88,0.07 -1.24,1.17 -0.57,1.75l3.67,3.18l-1.1,4.72c-0.2,0.86 0.73,1.54 1.49,1.08z" fill="#FCFF51"/></g><g id="IMAGE_42" data-node-id="2:263" clip-path="url(#clip41_2_2)"><path id="Vector_69" data-node-id="2:264" d="M78.054,14.1975l4.15,2.51c0.76,0.46 1.69,-0.22 1.49,-1.08l-1.1,-4.72l3.67,-3.18c0.67,-0.58 0.31,-1.68 -0.57,-1.75l-4.83,-0.41l-1.89,-4.46c-0.34,-0.81 -1.5,-0.81 -1.84,0l-1.89,4.45l-4.83,0.41c-0.88,0.07 -1.24,1.17 -0.57,1.75l3.67,3.18l-1.1,4.72c-0.2,0.86 0.73,1.54 1.49,1.08z" fill="#FCFF51"/></g><g id="IMAGE_43" data-node-id="2:266" clip-path="url(#clip42_2_2)"><path id="Vector_70" data-node-id="2:267" d="M9.054,14.1975l4.15,2.51c0.76,0.46 1.69,-0.22 1.49,-1.08l-1.1,-4.72l3.67,-3.18c0.67,-0.58 0.31,-1.68 -0.57,-1.75l-4.83,-0.41l-1.89,-4.46c-0.34,-0.81 -1.5,-0.81 -1.84,0l-1.89,4.45l-4.827,0.41c-0.88,0.07 -1.24,1.17 -0.57,1.75l3.667,3.18l-1.1,4.72c-0.2,0.86 0.73,1.54 1.49,1.08z" fill="#FCFF51"/></g><g id="IMAGE_44" data-node-id="2:268" clip-path="url(#clip43_2_2)"><path id="Vector_71" data-node-id="2:269" d="M101.054,14.1975l4.15,2.51c0.76,0.46 1.69,-0.22 1.49,-1.08l-1.1,-4.72l3.67,-3.18c0.67,-0.58 0.31,-1.68 -0.57,-1.75l-4.83,-0.41l-1.89,-4.46c-0.34,-0.81 -1.5,-0.81 -1.84,0l-1.89,4.45l-4.83,0.41c-0.88,0.07 -1.24,1.17 -0.57,1.75l3.67,3.18l-1.1,4.72c-0.2,0.86 0.73,1.54 1.49,1.08z" fill="#FCFF51"/></g><g id="IMAGE_45" data-node-id="2:270" clip-path="url(#clip44_2_2)"><path id="Vector_72" data-node-id="2:271" d="M55.054,14.1975l4.15,2.51c0.76,0.46 1.69,-0.22 1.49,-1.08l-1.1,-4.72l3.67,-3.18c0.67,-0.58 0.31,-1.68 -0.57,-1.75l-4.83,-0.41l-1.89,-4.46c-0.34,-0.81 -1.5,-0.81 -1.84,0l-1.89,4.45l-4.83,0.41c-0.88,0.07 -1.24,1.17 -0.57,1.75l3.67,3.18l-1.1,4.72c-0.2,0.86 0.73,1.54 1.49,1.08z" fill="#FCFF51"/></g></g></g></g></g></g></g><defs><clipPath id="clip0_2_2"><rect width="1440" height="5990" fill="white" x="-996.956" y="-5141.5025"/></clipPath><clipPath id="clip40_2_2"><rect width="18" height="17" fill="white" transform="translate(23.043999999999983, 0.4975000000004002)"/></clipPath><clipPath id="clip41_2_2"><rect width="18" height="17" fill="white" transform="translate(69.04399999999998, 0.4975000000004002)"/></clipPath><clipPath id="clip42_2_2"><rect width="18" height="17" fill="white" transform="translate(0.04399999999998272, 0.4975000000004002)"/></clipPath><clipPath id="clip43_2_2"><rect width="18" height="17" fill="white" transform="translate(92.04399999999998, 0.4975000000004002)"/></clipPath><clipPath id="clip44_2_2"><rect width="18" height="17" fill="white" transform="translate(46.04399999999998, 0.4975000000004002)"/></clipPath></defs></svg>