<svg viewBox="0 0 147.8674 91.0169" x="0" y="0" fill="none" xmlns="http://www.w3.org/2000/svg"><defs><clipPath id="clip14_2_2" xmlns="http://www.w3.org/2000/svg"><rect width="147" height="91" fill="white" transform="translate(0.5, 0.49729999999999563)"/></clipPath></defs><g id="IMAGE_15" data-node-id="2:178" clip-path="url(#clip14_2_2)" xmlns="http://www.w3.org/2000/svg"><path id="Vector_40" data-node-id="2:179" fill-rule="evenodd" clip-rule="evenodd" d="M19.1849,0.7173c-5.8011,2.61 -11.5627,5.14 -17.2849,7.92c-1.2332,0.6 -1.7461,2.07 -1.1542,3.3c0.592,1.23 2.0717,1.75 3.295,1.15c5.6926,-2.76 11.4048,-5.27 17.1664,-7.86c1.2431,-0.56 1.7958,-2.03 1.2434,-3.26c-0.5624,-1.25 -2.0226,-1.81 -3.2657,-1.25z" fill="#118DA8"/><path id="Vector_41" data-node-id="2:180" fill-rule="evenodd" clip-rule="evenodd" d="M61.8048,31.6073c-8.4253,18.29 -15.9235,36.99 -23.9543,55.45c-0.5426,1.26 0.0296,2.71 1.2727,3.25c1.253,0.55 2.703,-0.02 3.2555,-1.27c8.011,-18.43 15.4893,-37.1 23.9048,-55.35c0.5722,-1.25 0.0299,-2.71 -1.2033,-3.29c-1.2431,-0.57 -2.7032,-0.03 -3.2754,1.21z" fill="#118DA8"/><path id="Vector_42" data-node-id="2:181" fill-rule="evenodd" clip-rule="evenodd" d="M134.091,36.3573c2.694,16.81 5.861,33.58 8.367,50.42c0.207,1.35 1.46,2.28 2.801,2.08c1.352,-0.2 2.279,-1.46 2.082,-2.81c-2.516,-16.86 -5.683,-33.65 -8.386,-50.48c-0.217,-1.35 -1.48,-2.27 -2.821,-2.05c-1.352,0.22 -2.26,1.48 -2.043,2.84z" fill="#118DA8"/></g></svg>